# xmcd
#
# Track frame offsets: 
#        150
#        20435
#        36457
#        59467
#        77265
#        90945
#        103215
#        128247
#        142040
#        157515
#
# Disc length: 2269 seconds
#
# Revision: 2
# Processed by: cddbd v1.5.2PL0 Copyright (c) Steve Scherf et al.
# Submitted via: ExactAudioCopy v0.95b4
#
DISCID=7508db0a
DTITLE=Spooky Tooth - It's All About
DYEAR=1968
DGENRE=Oldies
TTITLE0=Society's Child
TTITLE1=Love Really Changed Me
TTITLE2=Here I Lived So Well
TTITLE3=Too Much Of Nothing
TTITLE4=Sunshine Help Me
TTITLE5=It's All About A Roundabout
TTITLE6=Tobacco Road
TTITLE7=It Hurts You So
TTITLE8=Forget It, I Got It
TTITLE9=Bubbles
EXTD=YEAR: 1968
EXTT0=
EXTT1=
EXTT2=
EXTT3=
EXTT4=
EXTT5=
EXTT6=
EXTT7=
EXTT8=
EXTT9=
PLAYORDER=
